<mxfile host="Electron" agent="Mozilla/5.0 (Windows NT 10.0; Win64; x64) AppleWebKit/537.36 (KHTML, like Gecko) draw.io/28.1.2 Chrome/138.0.7204.243 Electron/37.4.0 Safari/537.36" version="28.1.2">
  <diagram name="Page-1" id="WKvYIbtpjuf8xqB0tTor">
    <mxGraphModel dx="692" dy="501" grid="1" gridSize="10" guides="1" tooltips="1" connect="1" arrows="1" fold="1" page="1" pageScale="1" pageWidth="850" pageHeight="1100" math="0" shadow="0">
      <root>
        <mxCell id="0" />
        <mxCell id="1" parent="0" />
        <mxCell id="7f5gh0WjUC2ROT7R-OF2-2" value="" style="rounded=0;whiteSpace=wrap;html=1;fillColor=none;strokeColor=#B3B3B3;movable=1;resizable=1;rotatable=1;deletable=1;editable=1;locked=0;connectable=1;" parent="1" vertex="1">
          <mxGeometry x="15" y="130" width="120" height="510" as="geometry" />
        </mxCell>
        <mxCell id="7f5gh0WjUC2ROT7R-OF2-3" value="High Level Architecture" style="text;html=1;align=center;verticalAlign=middle;resizable=0;points=[];autosize=1;strokeColor=none;fillColor=none;fontSize=25;fontStyle=1" parent="1" vertex="1">
          <mxGeometry x="20" y="30" width="280" height="40" as="geometry" />
        </mxCell>
        <mxCell id="7f5gh0WjUC2ROT7R-OF2-5" value="Sources" style="rounded=0;whiteSpace=wrap;html=1;fontSize=14;strokeColor=none;fontStyle=0" parent="1" vertex="1">
          <mxGeometry x="35" y="110" width="80" height="30" as="geometry" />
        </mxCell>
        <mxCell id="7f5gh0WjUC2ROT7R-OF2-7" value="" style="rounded=0;whiteSpace=wrap;html=1;fillColor=none;strokeColor=#B3B3B3;" parent="1" vertex="1">
          <mxGeometry x="710" y="130" width="120" height="510" as="geometry" />
        </mxCell>
        <mxCell id="7f5gh0WjUC2ROT7R-OF2-9" value="Consume" style="rounded=0;whiteSpace=wrap;html=1;fontSize=14;strokeColor=none;fontStyle=0" parent="1" vertex="1">
          <mxGeometry x="730" y="115" width="80" height="30" as="geometry" />
        </mxCell>
        <mxCell id="7f5gh0WjUC2ROT7R-OF2-15" value="" style="rounded=0;whiteSpace=wrap;html=1;fillColor=none;strokeColor=#B3B3B3;" parent="1" vertex="1">
          <mxGeometry x="160" y="130" width="530" height="510" as="geometry" />
        </mxCell>
        <mxCell id="7f5gh0WjUC2ROT7R-OF2-16" value="Data Warehouse" style="rounded=0;whiteSpace=wrap;html=1;fontSize=14;strokeColor=none;fontStyle=0" parent="1" vertex="1">
          <mxGeometry x="365" y="110" width="120" height="40" as="geometry" />
        </mxCell>
        <mxCell id="7f5gh0WjUC2ROT7R-OF2-17" value="" style="rounded=0;whiteSpace=wrap;html=1;fillColor=none;strokeColor=#FFCC99;" parent="1" vertex="1">
          <mxGeometry x="180" y="210" width="130" height="400" as="geometry" />
        </mxCell>
        <mxCell id="7f5gh0WjUC2ROT7R-OF2-18" value="Bronze Layer" style="rounded=0;whiteSpace=wrap;html=1;fontStyle=1;fillColor=#FFCC99;fontColor=#030303;" parent="1" vertex="1">
          <mxGeometry x="180" y="170" width="130" height="35" as="geometry" />
        </mxCell>
        <mxCell id="7f5gh0WjUC2ROT7R-OF2-19" value="" style="rounded=0;whiteSpace=wrap;html=1;fillColor=none;" parent="1" vertex="1">
          <mxGeometry x="365" y="210" width="130" height="400" as="geometry" />
        </mxCell>
        <mxCell id="7f5gh0WjUC2ROT7R-OF2-20" value="" style="rounded=0;whiteSpace=wrap;html=1;fillColor=none;strokeColor=#FFFF99;" parent="1" vertex="1">
          <mxGeometry x="540" y="210" width="130" height="400" as="geometry" />
        </mxCell>
        <mxCell id="7f5gh0WjUC2ROT7R-OF2-21" value="Silver Layer" style="rounded=0;whiteSpace=wrap;html=1;fontStyle=1;strokeColor=#E6E6E6;fillColor=#E6E6E6;fontColor=#030303;" parent="1" vertex="1">
          <mxGeometry x="365" y="170" width="130" height="35" as="geometry" />
        </mxCell>
        <mxCell id="7f5gh0WjUC2ROT7R-OF2-22" value="Gold Layer" style="rounded=0;whiteSpace=wrap;html=1;fontStyle=1;fillColor=#FFFF99;fontColor=#030303;" parent="1" vertex="1">
          <mxGeometry x="540" y="170" width="130" height="35" as="geometry" />
        </mxCell>
        <mxCell id="7f5gh0WjUC2ROT7R-OF2-23" value="" style="image;aspect=fixed;html=1;points=[];align=center;fontSize=12;image=img/lib/azure2/general/Folder_Blank.svg;" parent="1" vertex="1">
          <mxGeometry x="50.36" y="270" width="49.29" height="40" as="geometry" />
        </mxCell>
        <mxCell id="7f5gh0WjUC2ROT7R-OF2-24" value="" style="image;aspect=fixed;html=1;points=[];align=center;fontSize=12;image=img/lib/azure2/general/File.svg;" parent="1" vertex="1">
          <mxGeometry x="75.3" y="290" width="24.35" height="30" as="geometry" />
        </mxCell>
        <mxCell id="7f5gh0WjUC2ROT7R-OF2-25" value="" style="image;aspect=fixed;html=1;points=[];align=center;fontSize=12;image=img/lib/azure2/general/Folder_Blank.svg;" parent="1" vertex="1">
          <mxGeometry x="50.36" y="360" width="49.29" height="40" as="geometry" />
        </mxCell>
        <mxCell id="7f5gh0WjUC2ROT7R-OF2-26" value="" style="image;aspect=fixed;html=1;points=[];align=center;fontSize=12;image=img/lib/azure2/general/File.svg;" parent="1" vertex="1">
          <mxGeometry x="75.3" y="380" width="24.35" height="30" as="geometry" />
        </mxCell>
        <mxCell id="7f5gh0WjUC2ROT7R-OF2-27" value="CRM" style="text;html=1;align=center;verticalAlign=middle;whiteSpace=wrap;rounded=0;fontStyle=1" parent="1" vertex="1">
          <mxGeometry x="39.64999999999998" y="320" width="60" height="30" as="geometry" />
        </mxCell>
        <mxCell id="7f5gh0WjUC2ROT7R-OF2-29" value="ERP" style="text;html=1;align=center;verticalAlign=middle;whiteSpace=wrap;rounded=0;fontStyle=1" parent="1" vertex="1">
          <mxGeometry x="39.64999999999998" y="410" width="60" height="30" as="geometry" />
        </mxCell>
        <mxCell id="7f5gh0WjUC2ROT7R-OF2-32" value="&lt;b&gt;Object Type:&lt;/b&gt; CSV Files&lt;div&gt;&lt;b&gt;Interface:&lt;/b&gt; Files In Folders&lt;/div&gt;" style="text;html=1;align=center;verticalAlign=middle;whiteSpace=wrap;rounded=0;" parent="1" vertex="1">
          <mxGeometry x="27.5" y="450" width="95" height="120" as="geometry" />
        </mxCell>
        <mxCell id="7f5gh0WjUC2ROT7R-OF2-33" value="" style="html=1;verticalLabelPosition=bottom;align=center;labelBackgroundColor=#ffffff;verticalAlign=top;strokeWidth=2;strokeColor=#FFCC99;shadow=0;dashed=0;shape=mxgraph.ios7.icons.data;fontColor=#FFCC99;" parent="1" vertex="1">
          <mxGeometry x="226.5" y="240" width="37" height="40" as="geometry" />
        </mxCell>
        <mxCell id="7f5gh0WjUC2ROT7R-OF2-36" value="" style="html=1;verticalLabelPosition=bottom;align=center;labelBackgroundColor=#ffffff;verticalAlign=top;strokeWidth=2;strokeColor=#E6E6E6;shadow=0;dashed=0;shape=mxgraph.ios7.icons.data;fillColor=none;" parent="1" vertex="1">
          <mxGeometry x="407" y="240" width="37" height="40" as="geometry" />
        </mxCell>
        <mxCell id="7f5gh0WjUC2ROT7R-OF2-37" value="" style="html=1;verticalLabelPosition=bottom;align=center;labelBackgroundColor=#ffffff;verticalAlign=top;strokeWidth=2;strokeColor=#FFFF99;shadow=0;dashed=0;shape=mxgraph.ios7.icons.data;" parent="1" vertex="1">
          <mxGeometry x="586.5" y="240" width="37" height="40" as="geometry" />
        </mxCell>
        <mxCell id="7f5gh0WjUC2ROT7R-OF2-38" value="" style="shape=singleArrow;whiteSpace=wrap;html=1;arrowWidth=0.42777709960937216;arrowSize=0.566665988498264;" parent="1" vertex="1">
          <mxGeometry x="135" y="280" width="70" height="30" as="geometry" />
        </mxCell>
        <mxCell id="7f5gh0WjUC2ROT7R-OF2-39" value="" style="shape=singleArrow;whiteSpace=wrap;html=1;arrowWidth=0.42777709960937216;arrowSize=0.566665988498264;" parent="1" vertex="1">
          <mxGeometry x="310" y="280" width="70" height="30" as="geometry" />
        </mxCell>
        <mxCell id="7f5gh0WjUC2ROT7R-OF2-40" value="" style="shape=singleArrow;whiteSpace=wrap;html=1;arrowWidth=0.42777709960937216;arrowSize=0.566665988498264;" parent="1" vertex="1">
          <mxGeometry x="485" y="280" width="70" height="30" as="geometry" />
        </mxCell>
        <mxCell id="7f5gh0WjUC2ROT7R-OF2-41" value="" style="shape=singleArrow;whiteSpace=wrap;html=1;arrowWidth=0.42777709960937216;arrowSize=0.566665988498264;" parent="1" vertex="1">
          <mxGeometry x="652.5" y="280" width="70" height="30" as="geometry" />
        </mxCell>
        <mxCell id="7f5gh0WjUC2ROT7R-OF2-42" value="Raw Data" style="text;html=1;align=center;verticalAlign=middle;whiteSpace=wrap;rounded=0;" parent="1" vertex="1">
          <mxGeometry x="215" y="280" width="60" height="30" as="geometry" />
        </mxCell>
        <mxCell id="7f5gh0WjUC2ROT7R-OF2-43" value="Cleaned, Standarized Data" style="text;html=1;align=center;verticalAlign=middle;whiteSpace=wrap;rounded=0;" parent="1" vertex="1">
          <mxGeometry x="375.5" y="280" width="100" height="30" as="geometry" />
        </mxCell>
        <mxCell id="7f5gh0WjUC2ROT7R-OF2-44" value="Business-Ready Data" style="text;html=1;align=center;verticalAlign=middle;whiteSpace=wrap;rounded=0;" parent="1" vertex="1">
          <mxGeometry x="555" y="290" width="95" height="30" as="geometry" />
        </mxCell>
        <mxCell id="7f5gh0WjUC2ROT7R-OF2-45" value="" style="image;aspect=fixed;html=1;points=[];align=center;fontSize=12;image=img/lib/azure2/analytics/Power_BI_Embedded.svg;" parent="1" vertex="1">
          <mxGeometry x="740" y="240" width="45" height="60" as="geometry" />
        </mxCell>
        <mxCell id="7f5gh0WjUC2ROT7R-OF2-46" value="" style="sketch=0;outlineConnect=0;fontColor=#232F3E;gradientColor=none;fillColor=#8C4FFF;strokeColor=none;dashed=0;verticalLabelPosition=bottom;verticalAlign=top;align=center;html=1;fontSize=12;fontStyle=0;aspect=fixed;pointerEvents=1;shape=mxgraph.aws4.quicksight_paginated_reports;" parent="1" vertex="1">
          <mxGeometry x="780" y="274" width="25.43" height="32" as="geometry" />
        </mxCell>
        <mxCell id="7f5gh0WjUC2ROT7R-OF2-47" value="" style="editableCssRules=.*;html=1;shape=image;verticalLabelPosition=bottom;labelBackgroundColor=#ffffff;verticalAlign=top;aspect=fixed;imageAspect=0;image=data:image/svg+xml,PHN2ZyB4bWxucz0iaHR0cDovL3d3dy53My5vcmcvMjAwMC9zdmciIHhtbG5zOnY9Imh0dHBzOi8vdmVjdGEuaW8vbmFubyIgd2lkdGg9IjIwLjAwMTA0NTIyNzA1MDc4IiBoZWlnaHQ9IjIwLjAwMTA0NTIyNzA1MDc4IiBmaWxsLXJ1bGU9ImV2ZW5vZGQiIHZpZXdCb3g9IjAgMCAyMC4wMDEwNDUyMjcwNTA3OCAyMC4wMDEwNDUyMjcwNTA3OCI+JiN4YTsJPHN0eWxlIHR5cGU9InRleHQvY3NzIj4mI3hhOwkuc3Qwe2ZpbGw6I2FlY2JmYTt9JiN4YTsJLnN0MXtmaWxsOiM2NjlkZjY7fSYjeGE7CS5zdDJ7ZmlsbDojNDI4NWY0O30mI3hhOwk8L3N0eWxlPiYjeGE7CTxwYXRoIGNsYXNzPSJzdDAiIGQ9Ik00LjczIDguODN2Mi42M2E0LjkxIDQuOTEgMCAwIDAgMS43MSAxLjc0VjguODN6Ii8+JiN4YTsJPHBhdGggY2xhc3M9InN0MSIgZD0iTTcuODkgNi40MXY3LjUzQTcuNjIgNy42MiAwIDAgMCA5IDE0YTggOCAwIDAgMCAxIDBWNi40MXoiLz4mI3hhOwk8cGF0aCBjbGFzcz0ic3QwIiBkPSJNMTEuNjQgOS44NnYzLjI5YTUgNSAwIDAgMCAxLjctMS44MlY5Ljg2eiIvPiYjeGE7CTxwYXRoIGNsYXNzPSJzdDIiIGQ9Ik0xNS43NCAxNC4zMmwtMS40MiAxLjQyYS40Mi40MiAwIDAgMCAwIC42bDMuNTQgMy41NGEuNDIuNDIgMCAwIDAgLjU5IDBsMS40My0xLjQzYS40Mi40MiAwIDAgMCAwLS41OWwtMy41NC0zLjU0YS40Mi40MiAwIDAgMC0uNiAwIi8+JiN4YTsJPHBhdGggY2xhc3M9InN0MSIgZD0iTTkgMGE5IDkgMCAxIDAgMCAxOEE5IDkgMCAxIDAgOSAwbTAgMTUuNjlhNi42OCA2LjY4IDAgMCAxIC4wMDctMTMuMzYgNi42OCA2LjY4IDAgMCAxIDQuNzI3IDExLjQwM0E2LjY4IDYuNjggMCAwIDEgOSAxNS42OSIvPiYjeGE7PC9zdmc+;" parent="1" vertex="1">
          <mxGeometry x="750" y="375" width="40" height="40" as="geometry" />
        </mxCell>
        <mxCell id="7f5gh0WjUC2ROT7R-OF2-48" value="" style="points=[];aspect=fixed;html=1;align=center;shadow=0;dashed=0;fillColor=#FF6A00;strokeColor=none;shape=mxgraph.alibaba_cloud.machine_learning;" parent="1" vertex="1">
          <mxGeometry x="743.2" y="480" width="49.8" height="50.099999999999994" as="geometry" />
        </mxCell>
        <mxCell id="7f5gh0WjUC2ROT7R-OF2-49" value="&lt;div&gt;&lt;span style=&quot;background-color: transparent; color: light-dark(rgb(0, 0, 0), rgb(255, 255, 255));&quot;&gt;&lt;b&gt;Object Type: &lt;/b&gt;Tables&lt;/span&gt;&lt;/div&gt;&lt;div&gt;&lt;br&gt;&lt;/div&gt;&lt;div&gt;&lt;b&gt;Load:&lt;/b&gt;&lt;/div&gt;&lt;div&gt;&lt;br&gt;&lt;/div&gt;&lt;div&gt;-Batch Processing&lt;/div&gt;&lt;div&gt;-Full Load&lt;/div&gt;&lt;div&gt;-Truncate &amp;amp; Insert&lt;/div&gt;&lt;div&gt;&lt;br&gt;&lt;/div&gt;&lt;div&gt;&lt;br&gt;&lt;/div&gt;&lt;div&gt;&lt;b&gt;No Transformations&lt;/b&gt;&lt;/div&gt;&lt;div&gt;&lt;br&gt;&lt;/div&gt;&lt;div&gt;&lt;b&gt;Data Model:&lt;/b&gt; None (as-is)&lt;/div&gt;" style="text;html=1;align=left;verticalAlign=middle;whiteSpace=wrap;rounded=0;fontSize=10;" parent="1" vertex="1">
          <mxGeometry x="185" y="450" width="120" height="30" as="geometry" />
        </mxCell>
        <mxCell id="7f5gh0WjUC2ROT7R-OF2-52" value="&lt;div style=&quot;text-align: left;&quot;&gt;&lt;span style=&quot;background-color: transparent; color: light-dark(rgb(0, 0, 0), rgb(255, 255, 255));&quot;&gt;&lt;b&gt;Object Type:&amp;nbsp;&lt;/b&gt;Tables&lt;/span&gt;&lt;/div&gt;&lt;div style=&quot;text-align: left;&quot;&gt;&lt;br&gt;&lt;/div&gt;&lt;div style=&quot;text-align: left;&quot;&gt;&lt;b&gt;Load:&lt;/b&gt;&lt;/div&gt;&lt;div style=&quot;text-align: left;&quot;&gt;&lt;br&gt;&lt;/div&gt;&lt;div style=&quot;text-align: left;&quot;&gt;-Batch Processing&lt;/div&gt;&lt;div style=&quot;text-align: left;&quot;&gt;-Full Load&lt;/div&gt;&lt;div style=&quot;text-align: left;&quot;&gt;-Truncate &amp;amp; Insert&lt;/div&gt;&lt;div style=&quot;text-align: left;&quot;&gt;&lt;br&gt;&lt;/div&gt;&lt;div style=&quot;text-align: left;&quot;&gt;&lt;br&gt;&lt;/div&gt;&lt;div style=&quot;text-align: left;&quot;&gt;&lt;b&gt;Transformations:&lt;/b&gt;&lt;/div&gt;&lt;div style=&quot;text-align: left;&quot;&gt;&lt;b&gt;&lt;br&gt;&lt;/b&gt;&lt;/div&gt;&lt;div style=&quot;text-align: left;&quot;&gt;Data cleaning&lt;/div&gt;&lt;div style=&quot;text-align: left;&quot;&gt;Data Standarization&lt;/div&gt;&lt;div style=&quot;text-align: left;&quot;&gt;Data Normalization&lt;/div&gt;&lt;div style=&quot;text-align: left;&quot;&gt;Derrived Columns&lt;/div&gt;&lt;div style=&quot;text-align: left;&quot;&gt;Data Enrichment&lt;/div&gt;&lt;div style=&quot;text-align: left;&quot;&gt;&lt;br&gt;&lt;/div&gt;&lt;div style=&quot;text-align: left;&quot;&gt;&lt;b&gt;Data Model:&lt;/b&gt;&amp;nbsp;None (as-is)&lt;/div&gt;" style="text;html=1;align=center;verticalAlign=middle;whiteSpace=wrap;rounded=0;fontSize=10;" parent="1" vertex="1">
          <mxGeometry x="375" y="450" width="120" height="30" as="geometry" />
        </mxCell>
        <mxCell id="7f5gh0WjUC2ROT7R-OF2-53" value="&lt;div style=&quot;text-align: left;&quot;&gt;&lt;span style=&quot;background-color: transparent; color: light-dark(rgb(0, 0, 0), rgb(255, 255, 255));&quot;&gt;&lt;font style=&quot;font-size: 10px;&quot;&gt;&lt;b style=&quot;&quot;&gt;Object Type:&amp;nbsp;&lt;/b&gt;Tables&lt;/font&gt;&lt;/span&gt;&lt;/div&gt;&lt;div style=&quot;text-align: left;&quot;&gt;&lt;font style=&quot;font-size: 10px;&quot;&gt;&lt;br&gt;&lt;/font&gt;&lt;/div&gt;&lt;div style=&quot;text-align: left;&quot;&gt;&lt;b&gt;&lt;font style=&quot;font-size: 10px;&quot;&gt;Load:&lt;/font&gt;&lt;/b&gt;&lt;/div&gt;&lt;div style=&quot;text-align: left;&quot;&gt;&lt;font style=&quot;font-size: 10px;&quot;&gt;&lt;br&gt;&lt;/font&gt;&lt;/div&gt;&lt;div style=&quot;text-align: left;&quot;&gt;&lt;font style=&quot;font-size: 10px;&quot;&gt;-Batch Processing&lt;/font&gt;&lt;/div&gt;&lt;div style=&quot;text-align: left;&quot;&gt;&lt;font style=&quot;font-size: 10px;&quot;&gt;-Full Load&lt;/font&gt;&lt;/div&gt;&lt;div style=&quot;text-align: left;&quot;&gt;&lt;font style=&quot;font-size: 10px;&quot;&gt;-Truncate &amp;amp; Insert&lt;/font&gt;&lt;/div&gt;&lt;div style=&quot;text-align: left;&quot;&gt;&lt;font style=&quot;font-size: 10px;&quot;&gt;&lt;br&gt;&lt;/font&gt;&lt;/div&gt;&lt;div style=&quot;text-align: left;&quot;&gt;&lt;b style=&quot;background-color: transparent; color: light-dark(rgb(0, 0, 0), rgb(255, 255, 255));&quot;&gt;&lt;font style=&quot;font-size: 10px;&quot;&gt;Transformations:&lt;/font&gt;&lt;/b&gt;&lt;/div&gt;&lt;div style=&quot;text-align: left;&quot;&gt;&lt;b&gt;&lt;font style=&quot;font-size: 10px;&quot;&gt;&lt;br&gt;&lt;/font&gt;&lt;/b&gt;&lt;/div&gt;&lt;div style=&quot;text-align: left;&quot;&gt;&lt;font style=&quot;font-size: 10px;&quot;&gt;Data Integrations&lt;/font&gt;&lt;/div&gt;&lt;div style=&quot;text-align: left;&quot;&gt;&lt;font style=&quot;font-size: 10px;&quot;&gt;Agreggations&lt;/font&gt;&lt;/div&gt;&lt;div style=&quot;text-align: left;&quot;&gt;&lt;span style=&quot;font-size: 10px;&quot;&gt;Business Logics&lt;/span&gt;&lt;/div&gt;&lt;div style=&quot;text-align: left;&quot;&gt;&lt;font style=&quot;font-size: 10px;&quot;&gt;&lt;br&gt;&lt;/font&gt;&lt;/div&gt;&lt;div style=&quot;text-align: left;&quot;&gt;&lt;font style=&quot;font-size: 10px;&quot;&gt;&lt;b style=&quot;&quot;&gt;Data Model:&lt;/b&gt;&amp;nbsp;None (as-is)&lt;/font&gt;&lt;/div&gt;" style="text;html=1;align=center;verticalAlign=middle;whiteSpace=wrap;rounded=0;" parent="1" vertex="1">
          <mxGeometry x="548.75" y="460" width="107.5" height="30" as="geometry" />
        </mxCell>
        <mxCell id="7f5gh0WjUC2ROT7R-OF2-56" value="BI &amp;amp; Reporting" style="text;html=1;align=center;verticalAlign=middle;whiteSpace=wrap;rounded=0;" parent="1" vertex="1">
          <mxGeometry x="733" y="310" width="60" height="30" as="geometry" />
        </mxCell>
        <mxCell id="7f5gh0WjUC2ROT7R-OF2-57" value="Ad-Hoc&lt;div&gt;SQL Queries&lt;/div&gt;" style="text;html=1;align=center;verticalAlign=middle;whiteSpace=wrap;rounded=0;" parent="1" vertex="1">
          <mxGeometry x="726.5" y="420" width="87" height="30" as="geometry" />
        </mxCell>
        <mxCell id="7f5gh0WjUC2ROT7R-OF2-58" value="Machine Learning" style="text;html=1;align=center;verticalAlign=middle;whiteSpace=wrap;rounded=0;" parent="1" vertex="1">
          <mxGeometry x="740" y="535" width="60" height="30" as="geometry" />
        </mxCell>
      </root>
    </mxGraphModel>
  </diagram>
</mxfile>
